<svg xmlns="http://www.w3.org/2000/svg" viewBox="0 0 64 64" role="img" aria-label="MagicJ">
  <defs>
    <linearGradient id="bg" x1="12" y1="8" x2="54" y2="58" gradientUnits="userSpaceOnUse">
      <stop offset="0" stop-color="#1e3a5f"/>
      <stop offset="0.55" stop-color="#2f6fa3"/>
      <stop offset="1" stop-color="#86b7d8"/>
    </linearGradient>
    <linearGradient id="shine" x1="15" y1="12" x2="48" y2="52" gradientUnits="userSpaceOnUse">
      <stop offset="0" stop-color="#ffffff" stop-opacity="0.78"/>
      <stop offset="1" stop-color="#ffffff" stop-opacity="0"/>
    </linearGradient>
  </defs>
  <rect width="64" height="64" rx="16" fill="url(#bg)"/>
  <path d="M14 14c8-5 24-6 36 1" fill="none" stroke="url(#shine)" stroke-width="5" stroke-linecap="round"/>
  <path d="M39 15v26c0 8.1-5.8 13.2-14.3 13.2-5.1 0-9.4-1.9-12.2-5.2l5.2-6.4c1.9 2.1 4 3.2 6.6 3.2 4.1 0 6.4-2.3 6.4-6.6V23H22v-8h17z" fill="#ffffff"/>
  <circle cx="47" cy="20" r="3.2" fill="#f4c76a"/>
  <circle cx="51" cy="30" r="2" fill="#ffffff" opacity="0.9"/>
  <path d="M47 20l4 10" stroke="#f4c76a" stroke-width="1.8" stroke-linecap="round" opacity="0.95"/>
</svg>
